<svg width="114" height="27" viewBox="0 0 114 27" fill="none" xmlns="http://www.w3.org/2000/svg">
<path d="M9.156 2.24C10.836 2.24 12.3107 2.52933 13.58 3.108C14.8493 3.68667 15.932 4.54533 16.828 5.684L14.672 8.176C13.9067 7.20533 13.0667 6.496 12.152 6.048C11.256 5.58133 10.2107 5.348 9.016 5.348C8.232 5.348 7.57867 5.45067 7.056 5.656C6.552 5.86133 6.17867 6.132 5.936 6.468C5.712 6.804 5.6 7.17733 5.6 7.588C5.6 8.092 5.796 8.52133 6.188 8.876C6.58 9.212 7.252 9.492 8.204 9.716L11.648 10.5C13.4773 10.9107 14.784 11.5267 15.568 12.348C16.3707 13.1507 16.772 14.196 16.772 15.484C16.772 16.6973 16.4547 17.7427 15.82 18.62C15.1853 19.4787 14.2987 20.1413 13.16 20.608C12.0213 21.056 10.7147 21.28 9.24 21.28C7.952 21.28 6.76667 21.1307 5.684 20.832C4.62 20.5147 3.668 20.0853 2.828 19.544C1.988 19.0027 1.288 18.3773 0.728 17.668L2.912 15.064C3.34133 15.6613 3.87333 16.1933 4.508 16.66C5.14267 17.1267 5.86133 17.5 6.664 17.78C7.48533 18.0413 8.344 18.172 9.24 18.172C10.0053 18.172 10.6493 18.088 11.172 17.92C11.7133 17.7333 12.1147 17.4813 12.376 17.164C12.656 16.828 12.796 16.4267 12.796 15.96C12.796 15.4747 12.628 15.064 12.292 14.728C11.9747 14.3733 11.3773 14.1027 10.5 13.916L6.748 13.076C5.66533 12.8147 4.732 12.4787 3.948 12.068C3.18267 11.6387 2.59467 11.0973 2.184 10.444C1.792 9.772 1.596 8.97867 1.596 8.064C1.596 6.96267 1.89467 5.97333 2.492 5.096C3.08933 4.21867 3.948 3.528 5.068 3.024C6.20667 2.50133 7.56933 2.24 9.156 2.24ZM20.5135 26.88V7H23.9575L24.2095 11.452L23.7335 10.948C23.9015 10.1267 24.2095 9.39867 24.6575 8.764C25.1242 8.12933 25.7122 7.63467 26.4215 7.28C27.1308 6.90667 27.9242 6.72 28.8015 6.72C29.9402 6.72 30.9575 7.00933 31.8535 7.588C32.7495 8.16667 33.4495 8.99733 33.9535 10.08C34.4762 11.144 34.7375 12.4413 34.7375 13.972C34.7375 15.5027 34.4762 16.8187 33.9535 17.92C33.4308 19.0027 32.7122 19.8333 31.7975 20.412C30.9015 20.9907 29.8748 21.28 28.7175 21.28C27.4855 21.28 26.4588 20.9347 25.6375 20.244C24.8348 19.5533 24.2842 18.6853 23.9855 17.64L24.3495 17.052V26.88H20.5135ZM27.5975 18.34C28.6242 18.34 29.4268 17.976 30.0055 17.248C30.6028 16.5013 30.9015 15.4187 30.9015 14C30.9015 12.5813 30.6122 11.508 30.0335 10.78C29.4735 10.0333 28.6802 9.66 27.6535 9.66C27.0002 9.66 26.4215 9.83733 25.9175 10.192C25.4322 10.528 25.0495 11.0227 24.7695 11.676C24.4895 12.3107 24.3495 13.0853 24.3495 14C24.3495 14.896 24.4802 15.6707 24.7415 16.324C25.0028 16.9773 25.3762 17.4813 25.8615 17.836C26.3655 18.172 26.9442 18.34 27.5975 18.34ZM46.5262 12.068C46.5262 11.2653 46.2928 10.64 45.8262 10.192C45.3782 9.744 44.7808 9.52 44.0342 9.52C43.3435 9.52 42.7368 9.69733 42.2142 10.052C41.6915 10.4067 41.3088 10.9947 41.0662 11.816L37.7902 10.808C38.1075 9.576 38.7982 8.58667 39.8622 7.84C40.9448 7.09333 42.3915 6.72 44.2022 6.72C45.4342 6.72 46.5075 6.916 47.4222 7.308C48.3368 7.68133 49.0462 8.25067 49.5502 9.016C50.0728 9.78133 50.3342 10.7427 50.3342 11.9V17.584C50.3342 18.2933 50.6702 18.648 51.3422 18.648C51.6595 18.648 51.9582 18.6013 52.2382 18.508L52.0142 20.888C51.5288 21.1307 50.9222 21.252 50.1942 21.252C49.5408 21.252 48.9528 21.14 48.4302 20.916C47.9075 20.692 47.4968 20.356 47.1982 19.908C46.8995 19.4413 46.7502 18.8627 46.7502 18.172V18.06L47.4222 17.948C47.3102 18.6573 47.0022 19.264 46.4982 19.768C45.9942 20.2533 45.3782 20.6267 44.6502 20.888C43.9408 21.1493 43.2035 21.28 42.4382 21.28C41.4862 21.28 40.6648 21.14 39.9742 20.86C39.2835 20.5613 38.7515 20.132 38.3782 19.572C38.0048 19.012 37.8182 18.3213 37.8182 17.5C37.8182 16.4547 38.1542 15.6053 38.8262 14.952C39.4982 14.28 40.4595 13.8227 41.7102 13.58L46.9742 12.516L46.9462 14.896L43.5862 15.568C42.9515 15.6987 42.4662 15.876 42.1302 16.1C41.8128 16.3053 41.6542 16.6507 41.6542 17.136C41.6542 17.6027 41.8222 17.9573 42.1582 18.2C42.5128 18.4427 42.9328 18.564 43.4182 18.564C43.8102 18.564 44.1928 18.5173 44.5662 18.424C44.9395 18.3307 45.2755 18.1813 45.5742 17.976C45.8728 17.7707 46.1062 17.4907 46.2742 17.136C46.4422 16.7813 46.5262 16.352 46.5262 15.848V12.068ZM63.4924 12.068C63.4924 11.2653 63.2591 10.64 62.7924 10.192C62.3444 9.744 61.7471 9.52 61.0004 9.52C60.3097 9.52 59.7031 9.69733 59.1804 10.052C58.6577 10.4067 58.2751 10.9947 58.0324 11.816L54.7564 10.808C55.0737 9.576 55.7644 8.58667 56.8284 7.84C57.9111 7.09333 59.3577 6.72 61.1684 6.72C62.4004 6.72 63.4737 6.916 64.3884 7.308C65.3031 7.68133 66.0124 8.25067 66.5164 9.016C67.0391 9.78133 67.3004 10.7427 67.3004 11.9V17.584C67.3004 18.2933 67.6364 18.648 68.3084 18.648C68.6257 18.648 68.9244 18.6013 69.2044 18.508L68.9804 20.888C68.4951 21.1307 67.8884 21.252 67.1604 21.252C66.5071 21.252 65.9191 21.14 65.3964 20.916C64.8737 20.692 64.4631 20.356 64.1644 19.908C63.8657 19.4413 63.7164 18.8627 63.7164 18.172V18.06L64.3884 17.948C64.2764 18.6573 63.9684 19.264 63.4644 19.768C62.9604 20.2533 62.3444 20.6267 61.6164 20.888C60.9071 21.1493 60.1697 21.28 59.4044 21.28C58.4524 21.28 57.6311 21.14 56.9404 20.86C56.2497 20.5613 55.7177 20.132 55.3444 19.572C54.9711 19.012 54.7844 18.3213 54.7844 17.5C54.7844 16.4547 55.1204 15.6053 55.7924 14.952C56.4644 14.28 57.4257 13.8227 58.6764 13.58L63.9404 12.516L63.9124 14.896L60.5524 15.568C59.9177 15.6987 59.4324 15.876 59.0964 16.1C58.7791 16.3053 58.6204 16.6507 58.6204 17.136C58.6204 17.6027 58.7884 17.9573 59.1244 18.2C59.4791 18.4427 59.8991 18.564 60.3844 18.564C60.7764 18.564 61.1591 18.5173 61.5324 18.424C61.9057 18.3307 62.2417 18.1813 62.5404 17.976C62.8391 17.7707 63.0724 17.4907 63.2404 17.136C63.4084 16.7813 63.4924 16.352 63.4924 15.848V12.068ZM72.1505 21V7H75.4825L75.7345 9.744C76.1079 8.77333 76.6492 8.02667 77.3585 7.504C78.0865 6.98133 78.9919 6.72 80.0745 6.72C80.3919 6.72 80.6812 6.748 80.9425 6.804C81.2039 6.86 81.4185 6.93467 81.5865 7.028L81.1385 10.248C80.9519 10.1733 80.7185 10.1173 80.4385 10.08C80.1772 10.0427 79.8319 10.024 79.4025 10.024C78.8425 10.024 78.3012 10.164 77.7785 10.444C77.2559 10.7053 76.8265 11.116 76.4905 11.676C76.1545 12.2173 75.9865 12.908 75.9865 13.748V21H72.1505ZM98.775 7L92.307 13.748L91.551 14.112L87.351 18.62L87.295 14.532L94.407 7H98.775ZM88.359 0.867999V21H84.523V0.867999H88.359ZM92.839 11.452L99.111 21H94.771L90.207 13.692L92.839 11.452ZM107.335 21.28C105.917 21.28 104.619 21.028 103.443 20.524C102.286 20.02 101.343 19.3107 100.615 18.396L102.827 16.156C103.275 16.828 103.873 17.3787 104.619 17.808C105.366 18.2373 106.253 18.452 107.279 18.452C108.007 18.452 108.586 18.3493 109.015 18.144C109.463 17.92 109.687 17.5747 109.687 17.108C109.687 16.8093 109.585 16.5573 109.379 16.352C109.174 16.128 108.763 15.9507 108.147 15.82L105.683 15.316C104.059 14.98 102.902 14.476 102.211 13.804C101.539 13.1133 101.203 12.2267 101.203 11.144C101.203 10.3787 101.427 9.66 101.875 8.988C102.342 8.316 103.033 7.77467 103.947 7.364C104.862 6.93467 106.001 6.72 107.363 6.72C108.763 6.72 109.977 6.944 111.003 7.392C112.049 7.82133 112.87 8.46533 113.467 9.324L111.171 11.564C110.761 10.9107 110.219 10.416 109.547 10.08C108.894 9.72533 108.203 9.548 107.475 9.548C106.953 9.548 106.505 9.604 106.131 9.716C105.758 9.828 105.478 9.98667 105.291 10.192C105.105 10.3787 105.011 10.6213 105.011 10.92C105.011 11.2187 105.142 11.48 105.403 11.704C105.665 11.9093 106.141 12.0867 106.831 12.236L109.687 12.824C111.069 13.104 112.058 13.58 112.655 14.252C113.253 14.9053 113.551 15.6987 113.551 16.632C113.551 17.528 113.309 18.3307 112.823 19.04C112.357 19.7307 111.657 20.2813 110.723 20.692C109.809 21.084 108.679 21.28 107.335 21.28Z" fill="url(#paint0_linear_5693_31006)"/>
<defs>
<linearGradient id="paint0_linear_5693_31006" x1="38.8514" y1="-2.6892" x2="133.141" y2="85.4939" gradientUnits="userSpaceOnUse">
<stop offset="0.0601141" stop-color="#409BEC"/>
<stop offset="0.0796386" stop-color="#409BEC"/>
<stop offset="1" stop-color="#080079"/>
</linearGradient>
</defs>
</svg>
